<svg xmlns="http://www.w3.org/2000/svg" xmlns:xlink="http://www.w3.org/1999/xlink"><symbol id="facebook"><path d="M6.4 19.6h-4V10H.2V6.8h2v-2C2.3 2.2 3.5.6 6.8.6h2.7v3.2H7.8c-1.3 0-1.4.5-1.4 1.4v1.6h3.1L9.1 10H6.4v9.5z"/></symbol><symbol id="menu"><rect x="9.5" y="15" width="14.6" height="2.5" rx="1.3"/><rect x=".6" y="7.5" width="23.5" height="2.5" rx="1.3"/><rect x=".6" width="23.5" height="2.5" rx="1.3"/></symbol><symbol id="steam"><path d="M15.8 30.5A15 15 0 101.4 20l.5.1-.4-6.2.4-.3H2c.2-.1 3.2 1 3.3 1l3.8 1.7a5 5 0 013.4-.7l3.5-4.2a6.2 6.2 0 0112.3-.5 6.2 6.2 0 01-5.6 6.7L17 21.6a5.1 5.1 0 01-10 .7l-2-.7A52 52 0 011.4 20a15 15 0 0014.4 10.5zm9.6-19.1a3 3 0 01-3.1 3 3 3 0 01-3.1-3 3 3 0 013-3 3 3 0 013.2 3zm-1 0c0 1.1-1 2-2.1 2a2 2 0 01-2.1-2c0-1.1 1-2 2-2 1.2 0 2.1.9 2.1 2zm-13.8 12a3 3 0 002.4.2 3 3 0 00.3-5.7.5.5 0 00-.7.2c-.1.3 0 .6.2.7h.1a2 2 0 011 2.8 2 2 0 01-2.9.9.5.5 0 00-.7.2c0 .3 0 .6.3.7z"/></symbol><symbol id="twitch"><path d="M20 13.6V.6H3L.7 3v12h5.3v3.8h2.4l2.5-2.7h6.4l2.6-2.5zm-12.6-.2H4a.4.4 0 01-.4-.4V2.8c0-.3.2-.4.4-.4h13.6c.3 0 .4.1.4.4V11l-2.4 2.3-.3.1h-4l-3.2 2.2a.4.4 0 01-.5 0 .4.4 0 01-.2-.3v-1.9z"/><path d="M13.8 9.8V5.6H12v4.2h1.7zm-4.3 0V5.6H7.8v4.2h1.7z"/></symbol><symbol id="twitter"><path d="M21.2 2.4a9 9 0 01-2.5.7c1-.5 1.6-1.3 2-2.3a9 9 0 01-2.8 1c-.8-.8-2-1.3-3.1-1.3-2.4 0-4.4 1.8-4.4 4 0 .4 0 .7.2 1-3.6-.2-6.8-1.8-9-4.2A4 4 0 003 6.7c-.6 0-1.3-.2-1.9-.5 0 2 1.5 3.6 3.5 4a4.6 4.6 0 01-2 0 4.3 4.3 0 004 2.8 9 9 0 01-6.3 1.7c2 1.2 4.2 1.8 6.6 1.8a11.8 11.8 0 0012.3-12c.8-.6 1.5-1.3 2.1-2z"/></symbol><symbol id="xbox"><path d="M10.6 3.2c1.5.6 3 1.4 4.5 2.4l.6.2c.1 0 .3 0 .5-.2 1.4-1 3-1.8 4.5-2.4a1 1 0 000-1.8c-3.1-1.2-7-1.2-10.1 0a1 1 0 000 1.8z"/><path d="M24.2 3.2a1 1 0 00-1 0A41 41 0 0018 6.5a1 1 0 000 1.4 49 49 0 019 17.3c-2.4-3.9-7.5-13-10.8-16.1a1 1 0 00-1.3 0c-3.3 3.1-8.4 12.2-10.7 16a49 49 0 019.2-18 1 1 0 00-.3-.6 41.4 41.4 0 00-5-3.5 1 1 0 00-1 0 15 15 0 1017 0z"/></symbol><symbol id="youtube"><path d="M20.6.2H6A5.2 5.2 0 00.8 5.5v7.4c0 3 2.3 5.3 5.2 5.3h14.6c2.9 0 5.2-2.4 5.2-5.3V5.5c0-3-2.3-5.3-5.2-5.3zm-3.5 9.3L10.3 13c-.2 0-.4 0-.4-.3V5.8c0-.2.2-.4.4-.3L17 9c.2.2.2.4 0 .5z"/></symbol></svg>